<svg width="38" height="40" viewBox="0 0 38 40" fill="none" xmlns="http://www.w3.org/2000/svg">
<path d="M28.9059 17.344C28.1266 15.6324 27.3212 13.8629 26.9228 11.8828C26.8922 11.5361 26.5269 7.74555 25.0307 5.89011C24.8407 5.65486 24.4177 5.63019 23.575 5.58062C22.6691 5.52732 21.4285 5.45462 20.0663 5.08434C19.4373 4.91318 18.9085 5.00283 18.494 5.35065C17.7833 5.94693 17.4761 7.26485 17.5813 9.26696L17.586 9.35398C17.5883 9.38482 17.5911 9.41521 17.5954 9.44187C17.6691 9.92714 17.863 10.3842 18.156 10.7637L18.1586 10.767C18.3059 10.9571 18.5243 11.075 18.7601 11.0871C19.197 11.1098 19.8782 11.1036 20.5494 10.9309C20.8959 10.8417 21.1842 10.582 21.321 10.2364C21.4523 9.90468 21.3873 9.56609 21.2501 9.24934C21.1723 9.06938 21.0917 8.99867 21.0325 9.01871C20.3838 9.23965 19.9477 9.24802 19.9141 9.2445C19.7598 9.23987 19.6384 9.10726 19.6429 8.94801C19.6471 8.78896 19.7773 8.65768 19.9306 8.66847C19.9289 8.66825 20.1742 8.66627 20.7227 8.47947C20.9476 8.40237 21.3773 8.3614 21.7265 8.94756C21.9971 9.40134 22.0382 9.95048 21.8387 10.4541C21.6348 10.9691 21.2037 11.3563 20.6849 11.49C20.1245 11.6343 19.5666 11.6739 19.1222 11.6739C19.0843 11.6739 19.0476 11.6737 19.0117 11.6731C18.6936 11.6695 18.4852 12.0147 18.6284 12.3072L18.796 12.6496C19.2098 13.495 19.7777 13.9789 20.6952 13.9285C22.9541 13.8043 22.9908 13.96 23.1625 14.9229C23.7201 18.0537 23.5365 20.6584 23.267 22.1031C23.0857 23.0744 22.9141 24.0017 23.0116 25.2322C20.0279 22.7375 16.5809 23.7363 15.2304 24.7705C11.7224 21.8088 8.04351 23.0452 7 23.4931V33.7755C8.14162 34.6094 9.47284 34.8209 10.7113 34.8795C13.1619 34.9958 14.9965 33.9656 15.2353 33.8433C16.5082 34.611 17.935 35 19.5127 35C20.9497 34.9998 22.5109 34.6808 24.1895 34.042C24.7756 33.8189 25.2228 33.5634 25.5823 33.3581C26.0085 33.1147 26.3165 32.9384 26.6222 32.9375C27.405 32.9327 28.1552 32.6604 28.7345 32.1707C29.24 31.7432 29.4506 31.3531 29.4858 30.7795C29.508 30.4145 29.5908 30.0783 29.7318 29.7803C32.1964 24.5678 30.5984 21.0588 28.9063 17.3438L28.9059 17.344ZM23.2556 31.9448C22.0344 32.4778 20.8729 32.656 19.8665 32.656C17.9073 32.656 16.5353 31.9813 16.4498 31.9383C16.3113 31.8685 16.254 31.696 16.3215 31.5533C16.3891 31.4105 16.5569 31.3508 16.6952 31.4205C16.7249 31.4352 19.6808 32.8793 23.0372 31.4143C23.1793 31.3517 23.3435 31.4209 23.4036 31.5672C23.4641 31.7136 23.3978 31.8826 23.2554 31.9447L23.2556 31.9448ZM29.2244 27.0687C29.171 27.1541 29.081 27.2008 28.9891 27.2008C28.9371 27.2008 28.8848 27.1861 28.8379 27.155C28.7082 27.0689 28.6704 26.8907 28.7539 26.7568C29.4721 25.6054 28.9653 23.0208 28.9602 22.9948C28.929 22.8389 29.026 22.6867 29.1774 22.6543C29.3283 22.6215 29.4764 22.7221 29.5078 22.8781C29.5309 22.9937 30.0659 25.7195 29.2244 27.0687Z" fill="#FF4C00"/>
</svg>
