<svg width="38" height="40" viewBox="0 0 38 40" fill="none" xmlns="http://www.w3.org/2000/svg">
<path d="M32.6748 4.48571C31.4115 3.61869 29.7063 3.98557 28.7907 5.25293L28.4748 5.68654C28.4116 5.78657 28.2536 5.78657 28.1906 5.68654L27.78 5.1529C26.7379 3.75222 24.7483 3.58548 23.5168 4.88607C22.5061 5.91984 22.4431 7.55408 23.1694 8.78794H24.9377L25.7587 7.32051C25.8535 7.15372 26.0429 7.05369 26.2323 7.05369C26.4218 7.05369 26.5797 7.15372 26.7059 7.32051L28.2216 10.0217L28.7585 9.08797C28.8532 8.92117 29.0426 8.82114 29.2321 8.82114H30.7478C31.0319 8.82114 31.2846 9.08797 31.2846 9.38805C31.2846 9.68814 31.0319 9.95496 30.7478 9.95496H29.5477L28.7267 11.4224C28.632 11.5892 28.4426 11.6892 28.2531 11.6892C28.0637 11.6892 27.9058 11.5892 27.7796 11.4224L26.2638 8.72116L25.727 9.65494C25.6323 9.82173 25.4429 9.92176 25.2534 9.92176H23.9904L27.4956 14.524C27.9377 15.0909 28.7587 15.0909 29.2008 14.524L33.4008 8.95469C34.4116 7.55402 34.1272 5.48624 32.6747 4.4857L32.6748 4.48571Z" fill="#FF4C00"/>
<path d="M11.2642 21.9607L8.95898 29.1308L12.0537 28.9307L13.9485 23.0613L12.8117 22.8278C12.1799 22.6945 11.6746 22.3944 11.2642 21.9607L11.2642 21.9607Z" fill="#FF4C00"/>
<path d="M20.4445 7.83377C20.7694 9.2479 19.9471 10.672 18.6083 11.0152C17.2692 11.3581 15.9204 10.4897 15.5957 9.07579C15.2711 7.66166 16.0931 6.23753 17.4322 5.89439C18.771 5.5515 20.1198 6.41989 20.4445 7.83377Z" fill="#FF4C00"/>
<path d="M8.92733 17.592C9.52738 17.8921 10.2221 17.6588 10.5063 17.0251L11.7063 14.5239L13.4115 13.9238L11.9905 19.3263C11.8958 19.7264 11.9273 20.16 12.1484 20.5269C12.3696 20.8937 12.6852 21.127 13.0641 21.2273L17.422 22.1609L15.9693 25.8294C15.6534 26.5964 16.0008 27.4636 16.7272 27.797C17.0114 27.9303 17.3273 27.9303 17.6115 27.8637C18.0535 27.7637 18.4009 27.4301 18.5903 26.9632L20.7061 21.594C20.8641 21.1939 20.8323 20.6935 20.6429 20.3267C20.4535 19.9265 20.0746 19.6597 19.664 19.5597L16.6323 18.8928L17.8324 15.4911L19.2851 17.4922C19.5693 17.8923 20.0431 18.0591 20.5167 17.959C20.6114 17.9258 20.7061 17.8923 20.8326 17.8257L23.3272 16.3583C23.8955 16.0247 24.1167 15.2578 23.7693 14.6575C23.4534 14.0574 22.7272 13.8238 22.1588 14.1907L20.5799 15.1245L19.2851 13.3569C18.9062 12.8233 18.3694 12.4232 17.8009 12.2231L15.4957 11.3561C14.8324 11.0893 14.0747 11.0893 13.3799 11.3228L10.5062 12.3234C10.1903 12.4234 9.96935 12.657 9.81143 12.9571L8.39044 15.9252C8.10628 16.5249 8.32722 17.2921 8.92725 17.5921L8.92733 17.592Z" fill="#FF4C00"/>
<path d="M31.3483 17.3919C31.2536 16.925 30.8115 16.6582 30.3694 16.7582L24.2116 18.5257C23.801 18.659 23.5483 19.0926 23.6432 19.5262L23.8644 20.6268C23.9591 21.0604 24.3697 21.3605 24.7801 21.2605L26.517 20.9269L27.2432 29.531L5.3275 30.9984C4.56955 31.0317 3.96972 31.7321 4.00118 32.5326C4.03268 33.3329 4.66445 33.9998 5.42218 33.9998H28.9169C29.3274 33.9998 29.7063 33.833 29.959 33.4997C30.2431 33.1996 30.3695 32.766 30.3378 32.3659L29.3272 20.4601L31.0641 20.1266C31.5062 20.0598 31.7903 19.5929 31.6956 19.126L31.3483 17.3919Z" fill="#FF4C00"/>
</svg>
