<svg width="38" height="40" viewBox="0 0 38 40" fill="none" xmlns="http://www.w3.org/2000/svg">
<path d="M29.8351 7.76111C29.7438 7.83435 29.6486 7.90377 29.5608 7.97701C29.4255 8.09772 29.2535 8.15999 29.0815 8.15999C28.8766 8.15999 28.6755 8.07219 28.529 7.90759C28.2657 7.60391 28.2948 7.13918 28.6023 6.87583C28.734 6.75869 28.8804 6.65278 29.0231 6.54279C28.306 5.58786 27.4537 4.72811 26.4842 4H11.1256C10.1525 4.72811 9.30374 5.58786 8.58667 6.54279C8.72933 6.64896 8.87198 6.75869 9.00749 6.87583C9.31117 7.13919 9.34409 7.60034 9.08073 7.90759C8.9345 8.07219 8.72958 8.15999 8.52466 8.15999C8.35649 8.15999 8.18448 8.09772 8.0454 7.97701C7.95761 7.90377 7.86625 7.83435 7.77464 7.76111C6.62933 9.70365 6 11.9392 6 14.2439C6 17.1449 6.95115 19.8853 8.74748 22.1645C8.7804 22.2048 8.80592 22.2487 8.82787 22.2926H11.6669C11.228 21.806 10.8108 21.2718 10.4157 20.6903C10.1888 20.3572 10.2766 19.8999 10.6097 19.6733C10.9463 19.4465 11.4 19.5343 11.6266 19.8709C11.7218 20.0099 11.8206 20.1452 11.9193 20.2807C13.818 22.8784 16.2472 24.3052 18.8045 24.3052C21.3619 24.3052 23.7911 22.8784 25.6897 20.2807C25.7885 20.1455 25.8836 20.0099 25.9824 19.8709C26.2093 19.5343 26.6628 19.4465 26.9958 19.6733C27.3324 19.9002 27.4202 20.3575 27.1933 20.6903C26.7983 21.2719 26.3775 21.806 25.9385 22.2926H28.7812C28.8031 22.2487 28.8287 22.2048 28.8616 22.1645C30.6584 19.8853 31.6095 17.1453 31.6095 14.2439C31.6095 11.9392 30.9766 9.70365 29.8351 7.76111ZM9.99491 9.05622C10.3499 8.8661 10.7924 9.00136 10.9864 9.35634C11.1106 9.59061 11.2242 9.83202 11.3304 10.077C11.4876 10.4501 11.312 10.8783 10.9425 11.0355C10.8473 11.0758 10.7523 11.094 10.6572 11.094C10.3718 11.094 10.1011 10.9258 9.9804 10.6476C9.89618 10.4465 9.79742 10.2416 9.69509 10.0477C9.50471 9.69268 9.63636 9.24633 9.99491 9.05622ZM11.3265 17.0096L11.0923 17.7047C10.9899 18.0084 10.7044 18.2024 10.4007 18.2024C10.3203 18.2024 10.2435 18.1878 10.1628 18.1621C9.78234 18.0339 9.57742 17.617 9.70553 17.2329L9.9398 16.5413C10.0715 16.1572 10.4849 15.9523 10.869 16.084C11.2497 16.2121 11.4582 16.6291 11.3265 17.0096ZM12.0143 13.973C11.9923 14.3645 11.6703 14.6646 11.2826 14.6646H11.2423C10.8399 14.6426 10.5326 14.2986 10.5546 13.8962C10.562 13.7645 10.5656 13.6328 10.5656 13.5011C10.5656 13.4098 10.562 13.322 10.5582 13.2304C10.5436 12.8243 10.8583 12.4877 11.2607 12.4694C11.6632 12.451 12.0072 12.7695 12.0217 13.1755C12.0253 13.2817 12.0291 13.3914 12.0291 13.5012C12.0291 13.6584 12.0217 13.8158 12.0143 13.973ZM18.8047 21.1953C18.3987 21.1953 18.0731 20.8661 18.0731 20.4636C18.0731 20.3978 18.0841 20.3394 18.0986 20.2807C18.179 19.966 18.4646 19.732 18.8048 19.732C19.145 19.732 19.4303 19.9663 19.5109 20.2807C19.5255 20.3391 19.5364 20.3976 19.5364 20.4634C19.5364 20.8658 19.2072 21.1953 18.8048 21.1953L18.8047 21.1953ZM25.5952 13.973C25.5842 13.8158 25.5806 13.6583 25.5806 13.5011C25.5806 13.3914 25.5842 13.2817 25.588 13.1719C25.6026 12.7695 25.9356 12.4584 26.349 12.4694C26.7515 12.4877 27.0661 12.8279 27.0516 13.2303C27.048 13.3217 27.0442 13.4095 27.0442 13.5011C27.0442 13.6328 27.0477 13.7645 27.0551 13.8961C27.0771 14.2986 26.7698 14.6426 26.3636 14.6646H26.3232C25.9389 14.6646 25.6133 14.3645 25.5952 13.973ZM27.4425 18.1621C27.3657 18.1876 27.2853 18.2024 27.2083 18.2024C26.9046 18.2024 26.6193 18.0084 26.5167 17.7047L26.2824 17.0096C26.1507 16.6291 26.3557 16.2121 26.7397 16.084C27.1202 15.9523 27.5372 16.1572 27.6689 16.5413L27.9032 17.2365C28.0316 17.6169 27.8269 18.0339 27.4425 18.1621ZM27.9147 10.0474C27.8085 10.2413 27.7136 10.4462 27.6255 10.6473C27.5084 10.9255 27.2376 11.0937 26.9523 11.0937C26.8571 11.0937 26.7622 11.0753 26.667 11.0352C26.2939 10.878 26.1219 10.4462 26.2791 10.0767C26.3814 9.83144 26.4985 9.59003 26.6231 9.35603C26.8132 9.00105 27.256 8.8658 27.6145 9.05591C27.9695 9.24604 28.1048 9.69236 27.9147 10.0474Z" fill="#FF4C00"/>
<path d="M18.8047 25.7683C16.8218 25.7683 14.9193 25.0696 13.2292 23.7561H8.85711C8.85354 24.4477 8.90458 25.1354 9.01814 25.8013L9.03268 25.8781C9.03626 25.9036 9.04366 25.9294 9.04723 25.9549C10.924 25.9659 12.5008 26.255 13.8143 26.683C16.4411 27.5392 18.018 28.955 18.8045 29.8623C19.591 28.955 21.1679 27.5392 23.7946 26.683C25.1081 26.255 26.6847 25.9659 28.5617 25.9549C28.5653 25.9294 28.5691 25.9036 28.5763 25.8817L28.5872 25.8013C28.7044 25.1355 28.7554 24.4477 28.7518 23.7561H24.3767C22.6901 25.0694 20.7876 25.7683 18.8047 25.7683Z" fill="#FF4C00"/>
<path d="M19.5366 31.2927V34.0001H25.8548C26.0488 33.4879 26.2537 32.9721 26.4622 32.449C27.117 30.8062 27.7828 29.1161 28.233 27.4221C22.456 27.5719 20.034 30.5756 19.5368 31.2927H19.5366Z" fill="#FF4C00"/>
<path d="M9.37695 27.4216C9.82686 29.1157 10.4927 30.8058 11.1477 32.4521C11.3527 32.9717 11.5576 33.491 11.7551 33.9996L18.0733 33.9999V31.2925C17.5792 30.579 15.1574 27.5718 9.37714 27.4217L9.37695 27.4216Z" fill="#FF4C00"/>
</svg>
