<svg width="38" height="40" viewBox="0 0 38 40" fill="none" xmlns="http://www.w3.org/2000/svg">
<path d="M21.5864 6.06885H22.6209V8.13782H21.5864V6.06885Z" fill="#FF4C00"/>
<path d="M19.5176 6.06885H20.5521V8.13782H19.5176V6.06885Z" fill="#FF4C00"/>
<path d="M19.0002 10.2068H29.345C29.6304 10.2068 29.8623 9.97455 29.8623 9.68961C29.8623 9.40466 29.6304 9.17236 29.345 9.17236H19.0002C18.7147 9.17236 18.4829 9.40466 18.4829 9.68961C18.4829 9.97455 18.7147 10.2068 19.0002 10.2068Z" fill="#FF4C00"/>
<path d="M23.6553 6.06885H24.6898V8.13782H23.6553V6.06885Z" fill="#FF4C00"/>
<path d="M25.7241 6.06885H26.7586V8.13782H25.7241V6.06885Z" fill="#FF4C00"/>
<path d="M27.7935 6.06885H28.8279V8.13782H27.7935V6.06885Z" fill="#FF4C00"/>
<path d="M27.7932 4.51724C27.7932 4.2323 27.5613 4 27.2759 4H21.069C20.7836 4 20.5518 4.2323 20.5518 4.51724V5.03449H27.7932V4.51724Z" fill="#FF4C00"/>
<path d="M33.9399 16.9313H16.9312V15.8969H33.6082C33.0656 14.7693 32.0027 13.9334 30.693 13.7152L27.793 13.2315V11.2417H20.5516V13.2315L17.6513 13.715C16.3423 13.9332 15.2787 14.7696 14.7361 15.8966L15.8964 15.8969V16.9313H14.4048C14.366 17.1549 14.3447 17.3844 14.3447 17.6183C14.3447 17.8206 14.3607 18.0263 14.3923 18.2302L16.1292 29.3454H29.8619V30.3798H16.2912L16.3341 30.6539C16.6366 32.5931 18.281 34.0005 20.244 34.0005H28.1013C30.0643 34.0005 31.7086 32.5931 32.0112 30.6539L32.0536 30.3798H30.8966V29.3454H32.2155L33.9524 18.2291C33.9841 18.0263 34 17.8206 34 17.6183C34 17.3844 33.9787 17.1549 33.94 16.9313H33.9399ZM27.5958 26.5621C26.4316 27.7259 24.9025 28.3078 23.3736 28.3078C21.8447 28.3078 20.3156 27.7259 19.1513 26.5621L18.7856 26.1964L27.2299 17.752L27.5957 18.1178C29.9238 20.4458 29.9238 24.2336 27.5957 26.5621H27.5958Z" fill="#FF4C00"/>
<path d="M26.6001 19.8449C27.0361 20.5136 27.2756 21.2994 27.2756 22.1037C27.2756 24.3853 25.4193 26.2416 23.1376 26.2416C22.3334 26.2416 21.5476 26.0022 20.8788 25.5662L20.2681 26.177C22.2052 27.7474 25.0634 27.6314 26.8651 25.8304C28.6667 24.0292 28.7819 21.1706 27.2117 19.2339L26.6001 19.8449Z" fill="#FF4C00"/>
<path d="M26.2415 22.1034C26.2415 21.5737 26.1023 21.0555 25.8473 20.5972L21.6318 24.8127C22.0907 25.0676 22.6084 25.2068 23.138 25.2068C24.8496 25.2068 26.2415 23.8149 26.2415 22.1034Z" fill="#FF4C00"/>
<path d="M7.10384 20.5519H9.63786C9.39725 19.3731 8.35309 18.4829 7.10384 18.4829H4.56982C4.80997 19.6617 5.8546 20.5519 7.10384 20.5519Z" fill="#FF4C00"/>
<path d="M14.0825 22.9492C13.1206 22.1784 11.9459 21.7115 10.7209 21.6085C10.6983 18.5058 10.4692 15.3792 8.13794 15.3792V16.4136C9.50494 16.4136 9.6675 19.0853 9.68713 21.6124C6.507 21.8777 4 24.5463 4 27.7927C4 31.2152 6.78436 33.9996 10.2069 33.9996C12.3177 33.9996 14.2347 32.9501 15.3886 31.1935C15.359 31.0684 15.3318 30.9421 15.3114 30.8128L14.0825 22.9492ZM10.2069 32.966C7.35493 32.966 5.03449 30.6456 5.03449 27.7936H6.06897C6.06897 30.0752 7.92525 31.9315 10.2069 31.9315V32.966ZM10.2069 24.6901C9.04681 24.6901 8.13794 24.0085 8.13794 23.1384H9.17243C9.17243 23.3494 9.57537 23.6556 10.2069 23.6556C10.8385 23.6556 11.2414 23.3494 11.2414 23.1384H12.2759C12.2759 24.0085 11.367 24.6901 10.2069 24.6901Z" fill="#FF4C00"/>
</svg>
